<?xml version="1.0" standalone="no"?>
<!DOCTYPE svg PUBLIC "-//W3C//DTD SVG 20010904//EN"
 "http://www.w3.org/TR/2001/REC-SVG-20010904/DTD/svg10.dtd">
<svg version="1.0" xmlns="http://www.w3.org/2000/svg"
 width="700.000000pt" height="700.000000pt" viewBox="0 0 700.000000 700.000000"
 preserveAspectRatio="xMidYMid meet">
<metadata>
Created by potrace 1.11, written by Peter Selinger 2001-2013
</metadata>
<g transform="translate(0.000000,700.000000) scale(0.100000,-0.100000)"
fill="#000000" stroke="none">
<path d="M760 6993 c-198 -31 -371 -117 -503 -250 -107 -108 -176 -225 -224
-380 l-28 -88 -2 -2755 -1 -2755 24 -94 c80 -315 295 -539 613 -639 l86 -27
2770 0 2770 0 80 23 c255 74 450 233 563 459 29 57 57 135 68 184 2 13 9 44
14 69 11 53 8 5512 -3 5551 -57 209 -124 333 -243 453 -120 119 -244 186 -453
243 -26 8 -5485 14 -5531 6z"/>
</g>
</svg>
